<?xml version="1.0" encoding="utf-8"?>
<!-- Generator: Adobe Illustrator 15.0.0, SVG Export Plug-In . SVG Version: 6.00 Build 0)  -->
<!DOCTYPE svg PUBLIC "-//W3C//DTD SVG 1.1//EN" "http://www.w3.org/Graphics/SVG/1.1/DTD/svg11.dtd">
<svg version="1.1" id="图层_1" xmlns="http://www.w3.org/2000/svg" xmlns:xlink="http://www.w3.org/1999/xlink" x="0px" y="0px"
	 width="37.814px" height="41.168px" viewBox="0 0 37.814 41.168" enable-background="new 0 0 37.814 41.168" xml:space="preserve">
<polygon fill="#FFFFFF" points="19.657,2.834 33.282,11.334 32.282,31.834 16.032,36.084 2.782,29.209 3.532,11.084 "/>
<path fill="#E83F59" d="M34.134,7.542L22.59,0.877c-2.024-1.169-5.339-1.169-7.364,0L3.682,7.542C1.657,8.711,0,11.581,0,13.919
	v13.33c0,2.338,1.657,5.208,3.682,6.377l11.543,6.665c2.025,1.169,5.34,1.169,7.364,0l11.544-6.665
	c2.024-1.169,3.682-4.039,3.682-6.377v-13.33C37.815,11.581,36.158,8.711,34.134,7.542z M14.879,17.489
	c-0.071,0.247-0.177,0.469-0.318,0.666c-0.142,0.196-0.317,0.354-0.53,0.477c-0.212,0.122-0.459,0.182-0.741,0.182
	c-0.223,0-0.427-0.04-0.613-0.121c-0.188-0.081-0.366-0.171-0.537-0.272c-0.091-0.061-0.177-0.113-0.257-0.159
	c-0.081-0.045-0.177-0.088-0.288-0.128c-0.404,0.182-0.785,0.421-1.143,0.719c-0.358,0.297-0.691,0.628-0.999,0.991
	c-0.309,0.363-0.592,0.752-0.849,1.166c-0.258,0.414-0.49,0.828-0.695,1.241c-0.207,0.414-0.385,0.819-0.53,1.219
	c-0.146,0.398-0.266,0.765-0.355,1.099c-0.07,0.242-0.134,0.518-0.188,0.824c-0.056,0.309-0.083,0.608-0.083,0.9
	c0,0.202,0.018,0.395,0.053,0.575c0.036,0.182,0.099,0.344,0.189,0.483c0.091,0.143,0.212,0.252,0.362,0.334
	c0.151,0.08,0.338,0.121,0.561,0.121c0.353,0,0.704-0.047,1.052-0.137c0.348-0.092,0.688-0.207,1.021-0.35
	c0.333-0.141,0.658-0.305,0.978-0.491c0.317-0.187,0.628-0.376,0.931-0.567c0.191-0.121,0.383-0.246,0.575-0.379
	c0.191-0.131,0.373-0.246,0.545-0.348c0.171-0.102,0.331-0.184,0.478-0.25c0.146-0.065,0.274-0.098,0.386-0.098
	c0.15,0,0.292,0.037,0.424,0.112c0.131,0.075,0.197,0.204,0.197,0.386c0,0.133-0.03,0.278-0.091,0.438
	c-0.143,0.396-0.333,0.748-0.575,1.062c-0.242,0.313-0.512,0.592-0.811,0.84c-0.298,0.246-0.615,0.467-0.954,0.658
	c-0.338,0.19-0.673,0.368-1.006,0.528c-0.626,0.334-1.259,0.583-1.899,0.75c-0.642,0.166-1.179,0.25-1.612,0.25
	c-0.142,0-0.308-0.017-0.5-0.046c-0.192-0.03-0.358-0.075-0.5-0.136c-0.817-0.354-1.413-0.828-1.786-1.425
	c-0.374-0.595-0.56-1.301-0.56-2.119c0-0.353,0.027-0.723,0.083-1.111s0.139-0.794,0.25-1.218c0.19-0.777,0.477-1.591,0.854-2.438
	s0.834-1.667,1.37-2.46c0.535-0.792,1.144-1.523,1.824-2.194c0.682-0.671,1.425-1.219,2.232-1.643
	c0.263-0.141,0.551-0.247,0.863-0.318c0.313-0.07,0.63-0.106,0.954-0.106c0.333,0,0.644,0.03,0.931,0.091s0.535,0.162,0.741,0.303
	c0.207,0.142,0.371,0.323,0.492,0.545s0.182,0.495,0.182,0.817C14.985,16.997,14.95,17.242,14.879,17.489z M32.044,19.949
	c-0.121,0.464-0.257,0.921-0.408,1.369c-0.151,0.449-0.309,0.901-0.469,1.354c-0.162,0.455-0.324,0.916-0.484,1.386
	c-0.162,0.469-0.303,0.951-0.424,1.445c-0.162,0.637-0.273,1.239-0.334,1.809c-0.062,0.57-0.101,1.027-0.121,1.371
	c-0.02,0.293-0.065,0.574-0.136,0.848c-0.071,0.271-0.174,0.512-0.312,0.719c-0.136,0.207-0.308,0.373-0.515,0.5
	c-0.207,0.126-0.451,0.189-0.734,0.189c-0.625,0-1.055-0.138-1.286-0.409c-0.231-0.272-0.349-0.646-0.349-1.12
	c0-0.252,0.025-0.524,0.076-0.817c0.051-0.292,0.115-0.595,0.197-0.907c0.141-0.535,0.3-1.067,0.477-1.598
	c0.176-0.529,0.354-1.064,0.529-1.604c0.177-0.541,0.349-1.08,0.515-1.62c0.167-0.539,0.315-1.082,0.446-1.628
	c0.01-0.049,0.016-0.115,0.016-0.196c0-0.141-0.035-0.252-0.104-0.333c-0.071-0.081-0.179-0.121-0.318-0.121
	c-0.223,0-0.462,0.045-0.719,0.136c-0.258,0.091-0.474,0.192-0.645,0.303c-0.677,0.454-1.269,0.903-1.777,1.347
	c-0.511,0.444-0.978,0.907-1.4,1.394c-0.423,0.484-0.825,1.002-1.203,1.551c-0.379,0.551-0.774,1.153-1.188,1.811
	c-0.354,0.656-0.616,1.213-0.787,1.672c-0.172,0.459-0.331,0.83-0.478,1.113c-0.146,0.281-0.311,0.486-0.491,0.611
	c-0.182,0.127-0.454,0.189-0.817,0.189c-0.404,0-0.688-0.115-0.855-0.349c-0.166-0.232-0.25-0.534-0.25-0.908
	c0-0.292,0.046-0.62,0.137-0.983L22.826,8.46c0.029-0.121,0.081-0.252,0.15-0.394c0.07-0.141,0.166-0.272,0.287-0.394
	s0.266-0.222,0.432-0.303c0.167-0.081,0.355-0.121,0.568-0.121c0.16,0,0.332,0.008,0.514,0.022c0.183,0.016,0.347,0.046,0.492,0.091
	c0.146,0.046,0.269,0.119,0.363,0.22c0.096,0.101,0.145,0.232,0.145,0.394c0,0.041-0.011,0.124-0.03,0.25
	c-0.021,0.126-0.052,0.27-0.09,0.431c-0.546,2.19-1.129,4.471-1.749,6.842c-0.62,2.372-1.249,4.768-1.885,7.189
	c0.615-0.756,1.256-1.451,1.922-2.081c0.666-0.631,1.351-1.173,2.052-1.627s1.428-0.81,2.18-1.067
	c0.752-0.258,1.531-0.386,2.339-0.386c0.515,0,0.913,0.164,1.196,0.492c0.281,0.328,0.424,0.745,0.424,1.249
	C32.136,19.5,32.104,19.727,32.044,19.949z"/>
</svg>
