<?xml version="1.0" standalone="no"?><!DOCTYPE svg PUBLIC "-//W3C//DTD SVG 1.1//EN" "http://www.w3.org/Graphics/SVG/1.1/DTD/svg11.dtd"><svg t="1504259413986" class="icon" style="" viewBox="0 0 1024 1024" version="1.1" xmlns="http://www.w3.org/2000/svg" p-id="10199" xmlns:xlink="http://www.w3.org/1999/xlink" width="200" height="200"><defs><style type="text/css"></style></defs><path fill="#E83F59" d="M868.344 190.325l-255.73-147.406c-28.867-16.924-63.57-26.919-100.609-26.919-37.038 0-71.743 9.995-101.562 27.434l-254.788 146.891c-60.715 35.468-100.858 100.321-100.859 174.551v294.244c0 74.23 40.144 139.083 99.906 174.036l256.683 147.921c28.867 16.924 63.57 26.919 100.609 26.919 37.038 0 71.743-9.995 101.562-27.434l254.776-146.891c60.697-35.472 100.826-100.316 100.826-174.533 0-0.007 0-0.013 0-0.019v-294.243c0-0.008 0-0.016 0-0.025 0-74.212-40.125-139.052-99.863-174.011zM840.644 736.995c-1.602 7.443-12.126 7.52-13.996 0.144-5.251-20.626-14.062-46.725-27.223-60.341-14.274-14.785-28.925-19.558-37.614-21.070-0.446-0.074-0.959-0.115-1.481-0.115-4.014 0-7.452 2.463-8.885 5.959-22.961 53.388-58.219 97.662-102.363 130.719 45.090-40.909 35.978-45.672 37.592-52.935 7.163-30.777 11.269-66.117 11.269-102.417 0-0.035 0-0.071 0-0.106 0-72.93-10.012-119.8-38.459-177.449-3.401-6.728-10.26-11.261-18.179-11.261-2.805 0-5.478 0.57-7.91 1.598-24.92 10.218-59.764 20.453-85.062 12.688-6.007-1.846-6.386-10.235-0.667-12.827 22.45-10.19 53.511-44.221 53.511-73.503-0.014-34.77-24.27-63.871-56.783-71.317-7.375-1.234-15.311-1.885-23.4-1.885-60.54 0-112.557 36.487-135.262 88.671-21.317 49.079-14.676 129.534 27.71 169.54s70.421 38.515 102.951 39.705c1.723 0.072 3.746 0.112 5.778 0.112 38.798 0 74.123-14.875 100.581-39.234 1.159-1.073 2.854-1.79 4.718-1.79 3.519 0 6.441 2.557 7.009 5.915 7.993 46.5 20.665 200.436-159.081 213.353h-0.957c-153.936-0.278-278.647-125.145-278.647-279.148 0-0.032 0-0.070 0-0.108 0-154.095 124.919-279.015 279.015-279.015 80.435 0 152.922 34.037 203.841 88.492 58.519 63.115 97.657 160.492 97.657 228.933l1.112 29.225c0.086 3.083 2.122 5.668 4.914 6.572 10.027 3.129 34.401 14.365 55.016 52.812 16.321 30.371 10.024 78.854 3.293 110.082z" p-id="10200"></path></svg>